<?xml version="1.0" standalone="no"?>
<!DOCTYPE svg PUBLIC "-//W3C//DTD SVG 20010904//EN"
 "http://www.w3.org/TR/2001/REC-SVG-20010904/DTD/svg10.dtd">
<svg version="1.0" xmlns="http://www.w3.org/2000/svg"
 width="289.000000pt" height="289.000000pt" viewBox="0 0 289.000000 289.000000"
 preserveAspectRatio="xMidYMid meet">
<metadata>
Created by potrace 1.11, written by Peter Selinger 2001-2013
</metadata>
<g transform="translate(0.000000,289.000000) scale(0.100000,-0.100000)"
fill="#000000" stroke="none">
<path d="M1074 2019 c-43 -28 -90 -53 -106 -55 -16 -1 -34 -7 -41 -11 -6 -4
-16 -8 -22 -9 -5 -1 -21 -6 -35 -12 -14 -5 -29 -10 -34 -10 -5 0 -12 -4 -15
-9 -3 -4 -24 -17 -46 -28 -90 -45 -130 -88 -181 -196 -12 -26 -39 -59 -60 -75
-22 -16 -41 -31 -44 -34 -3 -3 -56 -43 -119 -90 l-113 -84 64 -31 c35 -17 115
-59 178 -92 165 -87 497 -253 505 -253 13 0 117 51 113 55 -9 10 -592 335
-600 335 -17 0 -6 16 38 59 l45 44 35 -39 c19 -22 39 -38 44 -36 6 1 10 -3 10
-9 0 -6 7 -9 15 -5 8 3 15 2 15 -3 0 -16 86 -31 161 -28 67 3 88 10 170 50 97
48 153 91 164 127 3 11 11 20 16 20 5 0 8 3 8 8 -1 4 0 9 1 12 9 21 13 175 6
209 -3 14 -11 28 -17 31 -6 4 -10 10 -10 14 3 16 -12 55 -19 51 -4 -3 -19 1
-33 8 l-26 14 50 28 c27 16 49 32 49 35 0 3 -20 17 -45 32 l-44 27 -77 -50z"/>
<path d="M1642 2021 c-17 -15 -34 -26 -37 -23 -3 3 -5 0 -5 -6 0 -7 4 -12 10
-12 5 0 6 -7 3 -17 -4 -11 -3 -14 5 -9 7 4 12 3 12 -3 0 -12 34 -46 77 -79
l31 -24 -43 -44 c-24 -24 -47 -44 -52 -44 -20 0 -39 -57 -36 -110 2 -56 3 -62
18 -114 9 -34 67 -96 89 -96 8 0 16 -4 18 -10 2 -5 20 -12 42 -14 21 -3 41 -8
43 -10 3 -3 16 -1 29 4 14 6 24 6 24 1 0 -5 26 -3 58 5 31 8 63 16 70 16 6 1
12 5 12 9 0 4 12 12 28 17 15 6 50 24 78 41 l51 30 54 -41 c30 -22 55 -43 57
-47 1 -3 -13 -12 -30 -20 -229 -100 -598 -298 -598 -320 0 -5 23 -24 51 -44
l52 -36 42 29 c48 33 247 132 420 209 109 49 345 187 345 202 0 4 -46 33 -102
65 -156 87 -205 121 -211 143 -2 11 -2 22 1 26 11 11 3 97 -12 128 -20 42 -64
88 -100 107 -31 16 -129 19 -181 7 -59 -15 -74 -14 -102 9 -15 13 -33 27 -38
31 -6 5 -20 16 -32 26 -11 10 -31 20 -43 22 -13 3 -26 8 -29 12 -13 18 -40 12
-69 -16z"/>
<path d="M1450 1424 c-71 -14 -192 -18 -255 -9 -21 3 -36 3 -32 -1 3 -4 2 -15
-4 -25 -8 -16 -5 -21 17 -31 35 -16 140 -125 136 -141 -2 -7 0 -9 4 -5 4 4 12
0 19 -8 17 -24 46 -11 108 46 28 26 78 69 109 94 69 56 86 82 60 90 -26 8 -89
4 -162 -10z"/>
</g>
</svg>
